<svg xmlns="http://www.w3.org/2000/svg" xmlns:xlink="http://www.w3.org/1999/xlink" width="192" zoomAndPan="magnify" viewBox="0 0 144 143.999998" height="192" preserveAspectRatio="xMidYMid meet" version="1.0"><path fill="#f29d02" d="M 102.144531 88.089844 C 101.933594 77.933594 86.972656 69.863281 68.277344 69.960938 C 49.242188 70.058594 33.539062 78.582031 33.207031 88.996094 C 33.203125 89.183594 33.199219 89.367188 33.203125 89.550781 L 33.25 91.65625 C 33.246094 91.472656 33.246094 91.289062 33.25 91.105469 C 33.585938 80.6875 49.285156 72.164062 68.320312 72.066406 C 87.015625 71.972656 101.976562 80.039062 102.1875 90.195312 Z M 102.144531 88.089844 " fill-opacity="1" fill-rule="nonzero"/><path fill="#f89700" d="M 67.652344 85.753906 C 65.863281 85.761719 62.375 86.507812 62.335938 87.644531 C 62.320312 88.246094 63.410156 88.554688 65.078125 88.738281 C 66.917969 88.917969 69.394531 89 71.929688 89.175781 C 76.765625 89.558594 81.644531 90.449219 81.539062 93.765625 C 81.46875 95.976562 79.003906 99.117188 71.578125 100.105469 L 71.542969 101.242188 C 71.527344 101.683594 71.058594 102.03125 70.480469 102.035156 L 65.6875 102.058594 C 65.113281 102.0625 64.660156 101.71875 64.675781 101.277344 L 64.707031 100.328125 C 59.515625 100.039062 56.679688 98.570312 54.894531 96.621094 C 54.277344 96.023438 59.347656 94.449219 61.425781 94.4375 C 61.886719 94.4375 62.175781 94.496094 62.285156 94.65625 C 62.835938 95.695312 65.9375 96.121094 67.726562 96.109375 C 69.398438 96.101562 73.054688 95.386719 73.09375 94.21875 C 73.109375 93.808594 72.597656 93.558594 71.792969 93.375 C 70.304688 93.035156 67.710938 92.953125 64.945312 92.777344 C 59.644531 92.457031 53.78125 91.730469 53.898438 88.097656 C 53.972656 85.730469 56.675781 82.335938 65.304688 81.597656 L 65.335938 80.617188 C 65.347656 80.207031 65.820312 79.859375 66.398438 79.855469 L 71.1875 79.828125 C 71.765625 79.828125 72.214844 80.171875 72.203125 80.582031 L 72.167969 81.65625 C 76.421875 82.109375 78.921875 83.484375 80.484375 85.246094 C 81.378906 86.09375 76.425781 87.445312 74.175781 87.457031 C 73.65625 87.457031 73.253906 87.398438 73.144531 87.207031 C 72.542969 86.136719 69.382812 85.742188 67.652344 85.753906 M 65.671875 102.644531 L 70.460938 102.617188 C 71.644531 102.613281 72.585938 102.003906 72.613281 101.234375 L 72.632812 100.550781 C 79.855469 99.390625 82.527344 96.203125 82.605469 93.761719 C 82.742188 89.441406 75.019531 88.828125 72.09375 88.59375 C 71.046875 88.523438 70.023438 88.464844 69.035156 88.410156 C 67.648438 88.332031 66.34375 88.261719 65.3125 88.160156 C 64.738281 88.097656 63.398438 87.921875 63.410156 87.636719 C 63.429688 86.988281 66.09375 86.34375 67.632812 86.335938 C 69.222656 86.328125 71.734375 86.703125 72.125 87.398438 C 72.265625 87.640625 72.71875 88.050781 74.160156 88.042969 C 76.332031 88.03125 80.277344 87.050781 81.328125 86.0625 C 81.730469 85.6875 81.765625 85.296875 81.429688 84.964844 C 79.632812 82.945312 76.953125 81.703125 73.253906 81.183594 L 73.273438 80.578125 C 73.296875 79.835938 72.371094 79.238281 71.207031 79.242188 L 66.417969 79.269531 C 65.253906 79.273438 64.289062 79.882812 64.265625 80.625 L 64.25 81.109375 C 55.976562 82.03125 52.917969 85.414062 52.832031 88.101562 C 52.6875 92.628906 60.867188 93.125 64.792969 93.359375 C 65.375 93.398438 65.945312 93.429688 66.496094 93.460938 C 68.464844 93.574219 70.324219 93.679688 71.355469 93.914062 C 72.03125 94.070312 72.027344 94.179688 72.027344 94.226562 C 72.007812 94.859375 69.265625 95.519531 67.746094 95.527344 C 66.128906 95.535156 63.660156 95.140625 63.316406 94.480469 L 63.300781 94.457031 L 63.289062 94.433594 C 63.132812 94.214844 62.691406 93.847656 61.453125 93.855469 C 59.304688 93.867188 55.019531 95.113281 54.058594 96.007812 C 53.597656 96.4375 53.800781 96.761719 53.941406 96.894531 C 56.015625 99.164062 59.1875 100.460938 63.617188 100.84375 L 63.605469 101.285156 C 63.578125 102.054688 64.488281 102.652344 65.671875 102.644531 " fill-opacity="1" fill-rule="nonzero"/><path fill="#f9d720" d="M 65.691406 102.0625 L 70.480469 102.035156 C 71.058594 102.03125 71.53125 101.683594 71.542969 101.242188 L 71.582031 100.105469 C 79.003906 99.117188 81.46875 95.976562 81.539062 93.769531 C 81.644531 90.453125 76.765625 89.5625 71.929688 89.175781 C 69.398438 89 66.917969 88.917969 65.078125 88.738281 C 63.410156 88.554688 62.320312 88.246094 62.339844 87.644531 C 62.375 86.507812 65.867188 85.761719 67.652344 85.753906 C 69.441406 85.746094 72.546875 86.140625 73.148438 87.210938 C 73.257812 87.398438 73.660156 87.460938 74.175781 87.457031 C 76.429688 87.445312 81.378906 86.09375 80.484375 85.246094 C 78.925781 83.484375 76.425781 82.109375 72.167969 81.65625 L 72.203125 80.585938 C 72.21875 80.175781 71.765625 79.828125 71.1875 79.832031 L 66.398438 79.855469 C 65.820312 79.859375 65.347656 80.210938 65.335938 80.621094 L 65.304688 81.597656 C 56.679688 82.339844 53.972656 85.730469 53.898438 88.097656 C 53.78125 91.734375 59.644531 92.460938 64.949219 92.78125 C 67.710938 92.957031 70.304688 93.039062 71.796875 93.375 C 72.597656 93.5625 73.109375 93.8125 73.09375 94.222656 C 73.058594 95.390625 69.398438 96.105469 67.726562 96.113281 C 65.9375 96.121094 62.835938 95.695312 62.285156 94.65625 C 62.175781 94.5 61.890625 94.4375 61.425781 94.441406 C 59.351562 94.449219 54.277344 96.023438 54.894531 96.621094 C 56.679688 98.574219 59.515625 100.042969 64.707031 100.332031 L 64.675781 101.277344 C 64.660156 101.71875 65.113281 102.066406 65.691406 102.0625 " fill-opacity="1" fill-rule="nonzero"/><path fill="#f29d02" d="M 113.21875 99.707031 C 113.160156 96.765625 113.078125 93.058594 113.011719 89.816406 C 113.039062 87.179688 112.808594 84.582031 111.644531 82.191406 C 109.121094 76.777344 104.070312 73.058594 98.886719 70.40625 C 89.496094 65.738281 78.875 64.023438 68.464844 64.035156 C 59.5625 64.054688 50.046875 65.621094 42.023438 68.773438 C 32 72.4375 21.886719 80.710938 22.375 89.78125 C 22.417969 91.171875 22.425781 92.839844 22.464844 94.175781 C 22.550781 96.949219 22.523438 99.828125 22.679688 102.582031 C 23.15625 107.859375 26.71875 112.273438 30.796875 115.375 C 38.234375 120.949219 47.460938 123.578125 56.5625 124.78125 C 81.050781 128.40625 113.542969 117.664062 113.21875 99.707031 Z M 100.796875 83.101562 C 100.796875 83.101562 100.792969 83.097656 100.789062 83.09375 L 100.789062 83.089844 C 100.789062 83.089844 100.792969 83.09375 100.796875 83.097656 C 100.796875 83.097656 100.796875 83.101562 100.796875 83.101562 Z M 34.792969 106.34375 C 34.792969 106.34375 34.800781 106.347656 34.804688 106.351562 C 34.804688 106.351562 34.804688 106.351562 34.804688 106.355469 C 34.800781 106.351562 34.800781 106.347656 34.796875 106.347656 C 34.796875 106.347656 34.796875 106.34375 34.792969 106.34375 Z M 34.792969 106.34375 " fill-opacity="1" fill-rule="nonzero"/><path fill="#f28202" d="M 103.453125 73.101562 C 103.015625 72.800781 102.570312 72.511719 102.117188 72.230469 L 102.117188 116.34375 C 102.574219 116.054688 103.019531 115.761719 103.453125 115.460938 Z M 103.453125 73.101562 " fill-opacity="1" fill-rule="nonzero"/><path fill="#f28202" d="M 95.140625 68.726562 C 94.699219 68.546875 94.25 68.375 93.804688 68.207031 L 93.804688 120.492188 C 94.253906 120.3125 94.699219 120.132812 95.140625 119.949219 Z M 95.140625 68.726562 " fill-opacity="1" fill-rule="nonzero"/><path fill="#f28202" d="M 86.824219 66.078125 C 86.535156 66.007812 86.242188 65.933594 85.949219 65.867188 L 85.488281 65.867188 L 85.488281 123.136719 C 85.9375 123.023438 86.382812 122.90625 86.824219 122.789062 Z M 86.824219 66.078125 " fill-opacity="1" fill-rule="nonzero"/><path fill="#f28202" d="M 78.511719 65.867188 L 77.175781 65.867188 L 77.175781 124.738281 C 77.621094 124.675781 78.066406 124.613281 78.511719 124.542969 Z M 78.511719 65.867188 " fill-opacity="1" fill-rule="nonzero"/><path fill="#f28202" d="M 70.195312 125.386719 L 70.195312 65.867188 L 68.859375 65.867188 L 68.859375 125.441406 C 69.304688 125.429688 69.75 125.410156 70.195312 125.386719 Z M 70.195312 125.386719 " fill-opacity="1" fill-rule="nonzero"/><path fill="#f28202" d="M 110.433594 80.011719 L 110.433594 108.664062 C 110.945312 107.902344 111.390625 107.121094 111.769531 106.320312 L 111.769531 82.480469 C 111.726562 82.386719 111.691406 82.289062 111.644531 82.191406 C 111.289062 81.433594 110.878906 80.707031 110.433594 80.011719 Z M 110.433594 80.011719 " fill-opacity="1" fill-rule="nonzero"/><path fill="#f28202" d="M 36.9375 71.035156 C 36.488281 71.273438 36.042969 71.515625 35.601562 71.769531 L 35.601562 118.445312 C 36.042969 118.6875 36.488281 118.925781 36.9375 119.152344 Z M 36.9375 71.035156 " fill-opacity="1" fill-rule="nonzero"/><path fill="#f28202" d="M 27.285156 112.183594 C 27.714844 112.652344 28.160156 113.105469 28.621094 113.535156 L 28.621094 76.902344 C 28.15625 77.34375 27.710938 77.796875 27.285156 78.261719 Z M 27.285156 112.183594 " fill-opacity="1" fill-rule="nonzero"/><path fill="#f28202" d="M 43.914062 122 C 44.359375 122.144531 44.804688 122.28125 45.253906 122.417969 L 45.253906 67.617188 C 44.804688 67.765625 44.359375 67.917969 43.914062 68.074219 Z M 43.914062 122 " fill-opacity="1" fill-rule="nonzero"/><path fill="#f28202" d="M 52.230469 124.089844 C 52.675781 124.171875 53.121094 124.253906 53.566406 124.328125 L 53.566406 65.867188 L 52.230469 65.867188 Z M 52.230469 124.089844 " fill-opacity="1" fill-rule="nonzero"/><path fill="#f28202" d="M 60.542969 125.238281 C 60.988281 125.277344 61.433594 125.308594 61.878906 125.335938 L 61.878906 65.867188 L 60.542969 65.867188 Z M 60.542969 125.238281 " fill-opacity="1" fill-rule="nonzero"/><path fill="#fcb609" d="M 67.632812 86.339844 C 66.09375 86.347656 63.429688 86.992188 63.410156 87.640625 C 63.398438 87.925781 64.738281 88.101562 65.3125 88.164062 C 66.34375 88.265625 67.648438 88.335938 69.035156 88.414062 C 70.023438 88.464844 71.046875 88.523438 72.09375 88.59375 C 75.019531 88.828125 82.746094 89.445312 82.605469 93.761719 C 82.527344 96.207031 79.855469 99.390625 72.632812 100.550781 L 72.613281 101.238281 C 72.585938 102.007812 71.644531 102.613281 70.460938 102.621094 L 65.671875 102.644531 C 64.488281 102.652344 63.578125 102.054688 63.605469 101.285156 L 63.617188 100.84375 C 59.1875 100.460938 56.015625 99.164062 53.9375 96.894531 C 53.800781 96.761719 53.597656 96.4375 54.058594 96.007812 C 55.019531 95.113281 59.304688 93.867188 61.449219 93.855469 C 62.691406 93.851562 63.132812 94.214844 63.289062 94.433594 L 63.300781 94.457031 L 63.316406 94.480469 C 63.660156 95.140625 66.128906 95.535156 67.742188 95.527344 C 69.265625 95.519531 72.007812 94.863281 72.027344 94.226562 C 72.027344 94.179688 72.03125 94.070312 71.351562 93.914062 C 70.320312 93.679688 68.464844 93.574219 66.496094 93.460938 C 65.945312 93.429688 65.375 93.398438 64.792969 93.359375 C 60.867188 93.125 52.683594 92.628906 52.828125 88.101562 C 52.914062 85.414062 55.976562 82.03125 64.246094 81.109375 L 64.261719 80.625 C 64.289062 79.882812 65.253906 79.273438 66.417969 79.269531 L 71.207031 79.242188 C 72.371094 79.238281 73.292969 79.835938 73.269531 80.578125 L 73.25 81.183594 C 76.953125 81.703125 79.632812 82.945312 81.429688 84.964844 C 81.765625 85.296875 81.730469 85.6875 81.328125 86.0625 C 80.277344 87.050781 76.332031 88.03125 74.15625 88.042969 C 72.71875 88.050781 72.265625 87.640625 72.125 87.398438 C 71.734375 86.703125 69.222656 86.328125 67.632812 86.335938 M 67.117188 109.808594 C 86.175781 109.710938 101.898438 101.175781 102.230469 90.746094 C 102.5625 80.316406 87.378906 71.941406 68.320312 72.039062 C 49.261719 72.140625 33.539062 80.671875 33.207031 91.101562 C 32.875 101.53125 48.054688 109.90625 67.117188 109.808594 " fill-opacity="1" fill-rule="nonzero"/><path fill="#fbdf23" d="M 68.464844 64.035156 C 93.480469 63.90625 113.40625 74.898438 112.96875 88.585938 C 112.53125 102.273438 91.898438 113.476562 66.882812 113.605469 C 41.867188 113.730469 21.941406 102.742188 22.378906 89.054688 C 22.816406 75.363281 43.449219 64.164062 68.464844 64.035156 Z M 68.273438 69.960938 C 49.238281 70.058594 33.539062 78.582031 33.207031 88.996094 C 32.875 99.414062 48.035156 107.777344 67.070312 107.679688 C 86.105469 107.582031 101.808594 99.058594 102.140625 88.644531 C 102.472656 78.226562 87.308594 69.863281 68.273438 69.960938 " fill-opacity="1" fill-rule="nonzero"/><path fill="#fbe764" d="M 97.519531 69.746094 L 92.34375 75.292969 C 98.546875 78.679688 102.308594 83.398438 102.140625 88.644531 C 101.808594 99.058594 86.105469 107.582031 67.070312 107.679688 C 65.4375 107.6875 63.835938 107.628906 62.269531 107.519531 L 57.085938 113.070312 C 60.234375 113.4375 63.511719 113.621094 66.882812 113.605469 C 73.230469 113.574219 79.292969 112.824219 84.816406 111.507812 L 111.8125 82.582031 C 109.644531 77.472656 104.546875 73.011719 97.519531 69.746094 Z M 97.519531 69.746094 " fill-opacity="1" fill-rule="nonzero"/><path fill="#fbe764" d="M 33.207031 88.996094 C 33.46875 80.753906 43.363281 73.703125 56.914062 71.066406 L 63.300781 64.222656 C 57.746094 64.597656 52.480469 65.511719 47.691406 66.875 L 22.9375 93.394531 C 23.808594 96.386719 25.671875 99.183594 28.335938 101.6875 L 34.722656 94.84375 C 33.683594 93.007812 33.144531 91.042969 33.207031 88.996094 Z M 33.207031 88.996094 " fill-opacity="1" fill-rule="nonzero"/><path fill="#fbe764" d="M 22.679688 86.585938 L 37.363281 70.855469 C 29.40625 74.894531 23.992188 80.417969 22.679688 86.585938 Z M 22.679688 86.585938 " fill-opacity="1" fill-rule="nonzero"/><path fill="#fbe764" d="M 97.519531 69.746094 L 92.34375 75.292969 C 98.546875 78.679688 102.308594 83.398438 102.140625 88.644531 C 101.808594 99.058594 86.105469 107.582031 67.070312 107.679688 C 65.4375 107.6875 63.835938 107.628906 62.269531 107.519531 L 57.085938 113.070312 C 60.234375 113.4375 63.511719 113.621094 66.882812 113.605469 C 73.230469 113.574219 79.292969 112.824219 84.816406 111.507812 L 111.8125 82.582031 C 109.644531 77.472656 104.546875 73.011719 97.519531 69.746094 Z M 97.519531 69.746094 " fill-opacity="1" fill-rule="nonzero"/><path fill="#fbe764" d="M 33.207031 88.996094 C 33.46875 80.753906 43.363281 73.703125 56.914062 71.066406 L 63.300781 64.222656 C 57.746094 64.597656 52.480469 65.511719 47.691406 66.875 L 22.9375 93.394531 C 23.808594 96.386719 25.671875 99.183594 28.335938 101.6875 L 34.722656 94.84375 C 33.683594 93.007812 33.144531 91.042969 33.207031 88.996094 Z M 33.207031 88.996094 " fill-opacity="1" fill-rule="nonzero"/><path fill="#fbe764" d="M 22.679688 86.585938 L 37.363281 70.855469 C 29.40625 74.894531 23.992188 80.417969 22.679688 86.585938 Z M 22.679688 86.585938 " fill-opacity="1" fill-rule="nonzero"/><path fill="#1b0154" d="M 100.714844 117.1875 C 101.191406 116.910156 101.660156 116.628906 102.117188 116.34375 C 108.941406 112.03125 113.335938 106.367188 113.21875 99.707031 C 113.160156 96.765625 113.078125 93.058594 113.011719 89.816406 C 113.019531 89.125 113.007812 88.4375 112.964844 87.753906 C 112.933594 86.535156 112.738281 85.34375 112.390625 84.179688 C 112.25 83.679688 112.070312 83.1875 111.863281 82.703125 C 111.847656 82.660156 111.832031 82.621094 111.8125 82.582031 C 111.410156 81.628906 110.902344 80.699219 110.300781 79.792969 C 110.292969 79.785156 110.289062 79.777344 110.285156 79.769531 C 109.816406 79.066406 109.289062 78.378906 108.703125 77.707031 C 108.632812 77.625 108.558594 77.539062 108.480469 77.457031 C 108.386719 77.351562 108.289062 77.246094 108.191406 77.140625 C 108.191406 77.136719 108.191406 77.136719 108.1875 77.132812 C 108.160156 77.105469 108.132812 77.074219 108.105469 77.046875 C 107.898438 76.824219 107.6875 76.609375 107.472656 76.394531 C 107.421875 76.34375 107.371094 76.296875 107.320312 76.246094 C 107.160156 76.085938 106.996094 75.929688 106.828125 75.777344 C 106.816406 75.765625 106.804688 75.753906 106.789062 75.742188 C 106.460938 75.4375 106.121094 75.144531 105.773438 74.855469 C 105.726562 74.816406 105.683594 74.777344 105.636719 74.742188 C 105.484375 74.613281 105.328125 74.488281 105.171875 74.367188 C 105.042969 74.265625 104.914062 74.164062 104.78125 74.0625 C 104.679688 73.984375 104.578125 73.90625 104.472656 73.828125 C 104.199219 73.625 103.921875 73.425781 103.636719 73.226562 C 103.632812 73.226562 103.632812 73.222656 103.628906 73.21875 C 103.589844 73.195312 103.554688 73.167969 103.515625 73.144531 C 103.515625 73.144531 103.511719 73.140625 103.511719 73.140625 C 102.101562 72.164062 100.554688 71.25 98.890625 70.40625 C 98.890625 70.40625 98.886719 70.40625 98.886719 70.40625 C 98.441406 70.179688 97.984375 69.960938 97.523438 69.746094 C 95.1875 68.660156 92.640625 67.707031 89.917969 66.90625 C 89.738281 66.851562 89.558594 66.804688 89.382812 66.753906 C 89.085938 66.667969 88.789062 66.585938 88.488281 66.503906 C 88.03125 66.382812 87.578125 66.265625 87.117188 66.152344 C 87.054688 66.136719 86.996094 66.121094 86.933594 66.105469 C 85.632812 65.789062 84.320312 65.511719 83 65.273438 C 82.972656 65.269531 82.941406 65.261719 82.914062 65.257812 C 82.394531 65.164062 81.875 65.078125 81.351562 64.996094 C 81.105469 64.957031 80.863281 64.917969 80.613281 64.882812 C 80.382812 64.847656 80.152344 64.816406 79.917969 64.78125 C 79.386719 64.707031 78.847656 64.640625 78.308594 64.578125 C 78.265625 64.574219 78.222656 64.566406 78.179688 64.5625 C 75.054688 64.203125 71.808594 64.019531 68.46875 64.039062 L 68.464844 64.039062 C 68.457031 64.039062 68.445312 64.039062 68.4375 64.039062 C 68.027344 64.039062 67.617188 64.046875 67.210938 64.054688 C 66.859375 64.058594 66.507812 64.070312 66.152344 64.082031 C 66.136719 64.082031 66.121094 64.082031 66.105469 64.082031 C 64.996094 64.117188 63.882812 64.179688 62.769531 64.261719 C 62.6875 64.269531 62.609375 64.273438 62.53125 64.277344 C 62.054688 64.316406 61.582031 64.355469 61.105469 64.402344 C 60.828125 64.429688 60.546875 64.457031 60.273438 64.484375 C 60.085938 64.503906 59.898438 64.523438 59.707031 64.546875 C 59.25 64.597656 58.789062 64.652344 58.335938 64.710938 C 58.324219 64.710938 58.308594 64.714844 58.296875 64.714844 C 57.734375 64.789062 57.179688 64.867188 56.625 64.953125 C 56.613281 64.953125 56.601562 64.957031 56.585938 64.957031 C 56.132812 65.027344 55.675781 65.101562 55.226562 65.175781 C 55.21875 65.179688 55.210938 65.179688 55.203125 65.179688 C 54.578125 65.289062 53.960938 65.402344 53.347656 65.523438 C 53.300781 65.53125 53.257812 65.539062 53.210938 65.550781 C 52.617188 65.667969 52.03125 65.792969 51.449219 65.921875 C 51.390625 65.933594 51.335938 65.949219 51.277344 65.960938 C 50.699219 66.09375 50.125 66.230469 49.558594 66.375 C 49.515625 66.386719 49.46875 66.394531 49.425781 66.40625 C 49.089844 66.492188 48.753906 66.582031 48.421875 66.671875 C 48.324219 66.699219 48.226562 66.726562 48.132812 66.753906 C 47.675781 66.878906 47.21875 67.007812 46.769531 67.144531 C 46.652344 67.179688 46.53125 67.214844 46.414062 67.253906 C 46.082031 67.355469 45.75 67.457031 45.425781 67.5625 C 45.257812 67.617188 45.09375 67.671875 44.925781 67.726562 C 44.539062 67.855469 44.152344 67.988281 43.773438 68.121094 C 43.613281 68.179688 43.457031 68.234375 43.300781 68.292969 C 43.054688 68.382812 42.816406 68.472656 42.574219 68.566406 C 42.070312 78.292969 42.933594 87.664062 46.976562 92.769531 C 46.976562 92.769531 65.230469 106.660156 88.5 103.5625 L 89.648438 103.023438 C 89.648438 103.023438 96.890625 103.175781 106.28125 101.222656 C 106.28125 101.222656 105.527344 109.773438 100.71875 117.1875 Z M 100.789062 83.09375 L 100.789062 83.089844 C 100.789062 83.089844 100.792969 83.09375 100.792969 83.09375 C 100.792969 83.09375 100.792969 83.097656 100.796875 83.097656 C 100.792969 83.097656 100.789062 83.09375 100.789062 83.09375 Z M 100.789062 83.09375 " fill-opacity="0.1" fill-rule="nonzero"/><path fill="#f29d02" d="M 123.023438 89.242188 C 126.28125 86.042969 128.761719 81.734375 128.675781 77.054688 C 128.679688 76.339844 128.527344 67.210938 128.523438 66.222656 C 128.867188 57.804688 121.878906 51.496094 114.976562 47.941406 C 93.625 37.300781 61.53125 38.996094 44.472656 53.429688 C 40.757812 56.742188 37.800781 61.367188 37.890625 66.496094 C 37.9375 69.75 37.992188 73.445312 38.035156 76.761719 C 37.976562 79.3125 38.3125 81.875 39.441406 84.183594 C 41.183594 87.90625 44.210938 90.863281 47.546875 93.179688 C 68.375 106.894531 105.90625 105.269531 123.027344 89.246094 Z M 123.023438 89.242188 " fill-opacity="1" fill-rule="nonzero"/><path fill="#f28202" d="M 123.574219 88.683594 L 123.574219 54.253906 C 123.144531 53.800781 122.699219 53.359375 122.238281 52.933594 L 122.238281 89.957031 C 122.503906 89.71875 122.765625 89.484375 123.023438 89.242188 C 123.210938 89.058594 123.390625 88.871094 123.574219 88.683594 Z M 123.574219 88.683594 " fill-opacity="1" fill-rule="nonzero"/><path fill="#f28202" d="M 115.257812 48.089844 C 115.164062 48.042969 115.070312 47.992188 114.976562 47.941406 C 114.628906 47.769531 114.273438 47.609375 113.921875 47.441406 L 113.921875 95.550781 C 114.375 95.316406 114.820312 95.074219 115.257812 94.828125 Z M 115.257812 48.089844 " fill-opacity="1" fill-rule="nonzero"/><path fill="#f28202" d="M 106.945312 45.710938 L 105.609375 45.710938 L 105.609375 98.992188 C 106.054688 98.847656 106.503906 98.699219 106.945312 98.542969 Z M 106.945312 45.710938 " fill-opacity="1" fill-rule="nonzero"/><path fill="#f28202" d="M 98.628906 45.710938 L 97.292969 45.710938 L 97.292969 101.109375 C 97.742188 101.023438 98.183594 100.933594 98.628906 100.84375 Z M 98.628906 45.710938 " fill-opacity="1" fill-rule="nonzero"/><path fill="#f28202" d="M 90.3125 102.097656 L 90.3125 45.710938 L 88.976562 45.710938 L 88.976562 102.214844 C 89.425781 102.179688 89.871094 102.140625 90.3125 102.097656 Z M 90.3125 102.097656 " fill-opacity="1" fill-rule="nonzero"/><path fill="#f28202" d="M 72.347656 101.785156 C 72.792969 101.84375 73.238281 101.898438 73.683594 101.949219 L 73.683594 45.710938 L 72.347656 45.710938 Z M 72.347656 101.785156 " fill-opacity="1" fill-rule="nonzero"/><path fill="#f28202" d="M 47.40625 93.078125 C 47.453125 93.113281 47.5 93.144531 47.546875 93.179688 C 47.9375 93.4375 48.335938 93.6875 48.742188 93.933594 L 48.742188 50.292969 C 48.289062 50.585938 47.84375 50.882812 47.40625 51.1875 Z M 47.40625 93.078125 " fill-opacity="1" fill-rule="nonzero"/><path fill="#f28202" d="M 40.425781 85.996094 L 40.425781 58.148438 C 39.914062 58.957031 39.464844 59.800781 39.089844 60.671875 L 39.089844 83.390625 C 39.195312 83.65625 39.3125 83.921875 39.4375 84.183594 C 39.730469 84.808594 40.0625 85.414062 40.425781 85.996094 Z M 40.425781 85.996094 " fill-opacity="1" fill-rule="nonzero"/><path fill="#f28202" d="M 64.035156 100.195312 C 64.476562 100.308594 64.921875 100.414062 65.371094 100.519531 L 65.371094 45.710938 L 64.035156 45.710938 Z M 64.035156 100.195312 " fill-opacity="1" fill-rule="nonzero"/><path fill="#f28202" d="M 55.71875 97.460938 C 56.160156 97.640625 56.605469 97.820312 57.054688 97.992188 L 57.054688 45.992188 C 56.609375 46.175781 56.160156 46.359375 55.71875 46.550781 Z M 55.71875 97.460938 " fill-opacity="1" fill-rule="nonzero"/><path fill="#f28202" d="M 80.664062 102.429688 C 81.109375 102.441406 81.554688 102.449219 82 102.453125 L 82 45.710938 L 80.664062 45.710938 Z M 80.664062 102.429688 " fill-opacity="1" fill-rule="nonzero"/><path fill="#f29d02" d="M 117.679688 65.386719 C 117.601562 59.984375 113.273438 54.679688 104.988281 51.078125 C 90.226562 44.667969 68.511719 46.089844 56.476562 54.257812 C 51.199219 57.835938 48.664062 62.121094 48.722656 66.34375 L 48.75 68.449219 C 48.691406 64.226562 51.230469 59.941406 56.507812 56.363281 C 68.539062 48.195312 90.257812 46.773438 105.015625 53.1875 C 113.300781 56.785156 117.632812 62.089844 117.707031 67.492188 Z M 117.679688 65.386719 " fill-opacity="1" fill-rule="nonzero"/><path fill="#fcb609" d="M 88.351562 64.296875 C 87.160156 63.777344 84.378906 63.382812 83.632812 63.890625 C 83.300781 64.113281 84.128906 64.710938 84.5 64.957031 C 85.179688 65.386719 86.105469 65.890625 87.085938 66.421875 C 87.785156 66.800781 88.507812 67.199219 89.230469 67.609375 C 91.21875 68.792969 96.464844 71.917969 91.480469 75.300781 C 88.65625 77.21875 82.996094 78.835938 76.128906 77.296875 L 75.339844 77.835938 C 74.449219 78.441406 73.035156 78.601562 72.121094 78.203125 L 68.40625 76.589844 C 67.488281 76.191406 67.464844 75.40625 68.355469 74.800781 L 68.863281 74.457031 C 65.886719 72.644531 64.914062 70.53125 65.882812 68.019531 C 65.921875 67.867188 66.136719 67.539062 66.976562 67.355469 C 68.726562 66.972656 73.433594 67.441406 75.097656 68.164062 C 76.058594 68.582031 75.984375 69.023438 75.855469 69.253906 L 75.839844 69.273438 L 75.820312 69.296875 C 75.339844 69.9375 76.792969 71.09375 78.046875 71.640625 C 79.226562 72.152344 82.078125 72.5625 82.8125 72.066406 C 82.867188 72.027344 82.992188 71.941406 82.648438 71.585938 C 82.121094 71.050781 80.808594 70.332031 79.425781 69.570312 C 79.035156 69.359375 78.632812 69.140625 78.230469 68.910156 C 75.472656 67.382812 69.738281 64.203125 74.964844 60.652344 C 78.070312 58.546875 84.25 56.902344 91.65625 58.988281 L 92.21875 58.605469 C 93.074219 58.023438 94.503906 57.871094 95.40625 58.261719 L 99.121094 59.875 C 100.023438 60.269531 100.058594 61.058594 99.199219 61.640625 L 98.5 62.117188 C 100.761719 63.789062 101.421875 65.691406 100.519531 67.90625 C 100.402344 68.285156 99.933594 68.582031 99.195312 68.746094 C 97.273438 69.171875 93.128906 68.605469 91.445312 67.875 C 90.328125 67.390625 90.441406 66.910156 90.605469 66.671875 C 91.09375 65.984375 89.582031 64.828125 88.351562 64.292969 M 61.417969 82.773438 C 76.195312 89.191406 97.9375 87.769531 109.984375 79.59375 C 122.03125 71.417969 119.820312 59.585938 105.042969 53.164062 C 90.269531 46.746094 68.523438 48.167969 56.476562 56.347656 C 44.429688 64.519531 46.640625 76.355469 61.417969 82.773438 " fill-opacity="1" fill-rule="nonzero"/><path fill="#f89700" d="M 89.027344 63.839844 C 87.640625 63.238281 84.113281 62.640625 82.800781 63.53125 C 82.105469 64 82.597656 64.617188 83.671875 65.332031 C 84.882812 66.101562 86.699219 67.011719 88.449219 68.015625 C 91.734375 69.972656 94.480469 72.34375 90.652344 74.941406 C 88.097656 76.675781 82.648438 78.332031 75.824219 76.585938 L 74.511719 77.476562 C 74 77.824219 73.242188 77.941406 72.792969 77.746094 L 69.082031 76.132812 C 68.632812 75.9375 68.675781 75.511719 69.1875 75.164062 L 70.28125 74.421875 C 66.617188 72.421875 66.09375 70.289062 66.925781 68.128906 C 67.125 67.445312 72.804688 67.921875 74.417969 68.621094 C 74.773438 68.777344 74.925781 68.925781 74.832031 69.085938 C 74.078125 70.101562 75.984375 71.496094 77.371094 72.097656 C 78.667969 72.664062 82.289062 73.34375 83.640625 72.425781 C 84.113281 72.105469 84.003906 71.730469 83.597656 71.3125 C 82.835938 70.535156 80.929688 69.585938 79 68.503906 C 75.28125 66.441406 71.59375 63.863281 75.792969 61.015625 C 78.527344 59.160156 84.445312 57.382812 91.917969 59.738281 L 93.046875 58.96875 C 93.519531 58.648438 94.28125 58.53125 94.726562 58.726562 L 98.441406 60.339844 C 98.886719 60.53125 98.84375 60.960938 98.371094 61.28125 L 97.132812 62.125 C 99.894531 63.933594 100.261719 65.878906 99.472656 67.808594 C 99.203125 68.789062 93.863281 68.175781 92.121094 67.417969 C 91.71875 67.242188 91.476562 67.058594 91.605469 66.871094 C 92.355469 65.8125 90.367188 64.421875 89.023438 63.839844 M 68.402344 76.589844 L 72.117188 78.203125 C 73.035156 78.601562 74.445312 78.441406 75.335938 77.835938 L 76.128906 77.296875 C 82.996094 78.835938 88.652344 77.21875 91.476562 75.300781 C 96.464844 71.917969 91.214844 68.792969 89.230469 67.609375 C 88.503906 67.199219 87.785156 66.800781 87.082031 66.421875 C 86.101562 65.890625 85.179688 65.386719 84.5 64.957031 C 84.128906 64.710938 83.296875 64.113281 83.628906 63.890625 C 84.375 63.382812 87.15625 63.777344 88.351562 64.296875 C 89.582031 64.832031 91.089844 65.984375 90.601562 66.671875 C 90.4375 66.914062 90.324219 67.390625 91.441406 67.878906 C 93.125 68.609375 97.269531 69.175781 99.195312 68.75 C 99.929688 68.585938 100.398438 68.289062 100.515625 67.910156 C 101.417969 65.691406 100.757812 63.792969 98.496094 62.117188 L 99.195312 61.640625 C 100.054688 61.058594 100.019531 60.269531 99.117188 59.878906 L 95.402344 58.265625 C 94.5 57.875 93.070312 58.027344 92.214844 58.609375 L 91.65625 58.988281 C 84.246094 56.902344 78.070312 58.546875 74.960938 60.65625 C 69.734375 64.203125 75.472656 67.386719 78.226562 68.910156 C 78.628906 69.140625 79.03125 69.359375 79.421875 69.574219 C 80.808594 70.335938 82.117188 71.050781 82.644531 71.589844 C 82.988281 71.945312 82.863281 72.03125 82.808594 72.066406 C 82.078125 72.5625 79.222656 72.152344 78.042969 71.640625 C 76.789062 71.097656 75.339844 69.941406 75.816406 69.300781 L 75.835938 69.273438 L 75.851562 69.253906 C 75.980469 69.027344 76.054688 68.585938 75.09375 68.167969 C 73.429688 67.445312 68.722656 66.972656 66.972656 67.355469 C 66.132812 67.539062 65.917969 67.871094 65.878906 68.019531 C 64.910156 70.53125 65.882812 72.644531 68.859375 74.460938 L 68.351562 74.804688 C 67.464844 75.410156 67.484375 76.195312 68.402344 76.59375 " fill-opacity="1" fill-rule="nonzero"/><path fill="#f9d720" d="M 69.082031 76.132812 L 72.792969 77.746094 C 73.242188 77.9375 74 77.820312 74.511719 77.476562 L 75.824219 76.582031 C 82.648438 78.332031 88.097656 76.675781 90.652344 74.941406 C 94.480469 72.339844 91.734375 69.96875 88.449219 68.015625 C 86.699219 67.011719 84.886719 66.101562 83.671875 65.332031 C 82.597656 64.617188 82.105469 64 82.800781 63.527344 C 84.113281 62.636719 87.640625 63.234375 89.027344 63.839844 C 90.371094 64.421875 92.355469 65.8125 91.609375 66.867188 C 91.480469 67.054688 91.71875 67.242188 92.121094 67.417969 C 93.867188 68.175781 99.207031 68.789062 99.472656 67.808594 C 100.265625 65.878906 99.894531 63.933594 97.132812 62.125 L 98.375 61.28125 C 98.847656 60.960938 98.890625 60.53125 98.441406 60.335938 L 94.730469 58.722656 C 94.28125 58.53125 93.523438 58.648438 93.050781 58.96875 L 91.917969 59.734375 C 84.445312 57.382812 78.53125 59.15625 75.792969 61.015625 C 71.597656 63.863281 75.285156 66.441406 79.003906 68.503906 C 80.933594 69.585938 82.835938 70.53125 83.597656 71.3125 C 84.007812 71.730469 84.117188 72.105469 83.640625 72.425781 C 82.292969 73.339844 78.671875 72.660156 77.375 72.097656 C 75.988281 71.496094 74.082031 70.101562 74.835938 69.085938 C 74.925781 68.921875 74.777344 68.777344 74.417969 68.621094 C 72.808594 67.921875 67.128906 67.445312 66.925781 68.128906 C 66.09375 70.285156 66.617188 72.421875 70.28125 74.421875 L 69.1875 75.164062 C 68.679688 75.507812 68.636719 75.9375 69.082031 76.132812 " fill-opacity="1" fill-rule="nonzero"/><path fill="#fbdf23" d="M 111.832031 46.4375 C 131.226562 54.863281 134.128906 70.390625 118.316406 81.125 C 102.503906 91.855469 73.964844 93.722656 54.570312 85.296875 C 35.175781 76.871094 32.269531 61.339844 48.082031 50.609375 C 63.894531 39.878906 92.4375 38.011719 111.832031 46.4375 Z M 104.988281 51.078125 C 90.226562 44.667969 68.511719 46.089844 56.476562 54.257812 C 44.445312 62.421875 46.65625 74.238281 61.414062 80.652344 C 76.171875 87.0625 97.890625 85.640625 109.921875 77.476562 C 121.957031 69.308594 119.746094 57.492188 104.988281 51.078125 " fill-opacity="1" fill-rule="nonzero"/><path fill="#fbe764" d="M 64.953125 81.992188 L 59.988281 87.3125 C 67.179688 89.585938 75.222656 90.652344 83.226562 90.566406 L 89.046875 84.328125 C 80.910156 85.171875 72.3125 84.429688 64.953125 81.992188 Z M 64.953125 81.992188 " fill-opacity="1" fill-rule="nonzero"/><path fill="#fbe764" d="M 104.988281 51.082031 C 109.011719 52.828125 112.097656 54.984375 114.222656 57.351562 L 120.042969 51.113281 C 117.757812 49.398438 115.019531 47.820312 111.832031 46.4375 C 108.550781 45.011719 105.003906 43.886719 101.304688 43.042969 L 96.347656 48.355469 C 99.390625 49.011719 102.304688 49.914062 104.988281 51.082031 Z M 104.988281 51.082031 " fill-opacity="1" fill-rule="nonzero"/><path fill="#fbe764" d="M 128.351562 63.371094 C 127.871094 60.230469 126.296875 57.15625 123.65625 54.328125 L 116.898438 61.570312 C 119.023438 66.9375 116.808594 72.804688 109.921875 77.476562 C 106.3125 79.925781 101.828125 81.765625 96.921875 82.972656 L 90.175781 90.199219 C 95.871094 89.660156 101.40625 88.535156 106.449219 86.839844 Z M 128.351562 63.371094 " fill-opacity="1" fill-rule="nonzero"/><path fill="#1b0154" d="M 106.726562 61.492188 C 107.78125 56.285156 105.609375 52.214844 105.609375 52.214844 L 104.832031 43.953125 C 103.675781 43.621094 102.5 43.316406 101.304688 43.042969 C 101.304688 43.042969 101.304688 43.042969 101.300781 43.042969 C 99.238281 42.574219 97.128906 42.195312 94.988281 41.902344 C 94.980469 41.898438 94.972656 41.898438 94.964844 41.898438 C 94.46875 41.832031 93.972656 41.761719 93.472656 41.707031 C 82.359375 40.320312 70.6875 41.304688 60.574219 44.691406 C 55.925781 46.199219 51.675781 48.171875 48.082031 50.609375 C 46.746094 51.515625 45.546875 52.460938 44.476562 53.425781 C 44.476562 53.429688 44.476562 53.429688 44.472656 53.429688 C 44.460938 53.441406 44.453125 53.453125 44.441406 53.460938 C 44.285156 53.601562 44.132812 53.746094 43.980469 53.886719 C 43.851562 54.007812 43.722656 54.132812 43.59375 54.261719 C 43.5625 54.289062 43.535156 54.316406 43.507812 54.34375 C 43.050781 54.796875 42.613281 55.269531 42.195312 55.761719 C 42.117188 55.847656 42.042969 55.9375 41.96875 56.023438 C 41.894531 56.113281 41.820312 56.207031 41.746094 56.300781 C 41.601562 56.480469 41.460938 56.660156 41.324219 56.839844 C 41.304688 56.867188 41.285156 56.894531 41.265625 56.921875 C 39.851562 58.8125 38.886719 60.773438 38.359375 62.75 C 38.359375 62.753906 38.359375 62.757812 38.355469 62.761719 C 38.28125 63.042969 38.21875 63.324219 38.160156 63.605469 C 38.148438 63.667969 38.136719 63.730469 38.125 63.796875 C 38.085938 64.007812 38.050781 64.21875 38.023438 64.429688 C 38.011719 64.507812 37.996094 64.585938 37.988281 64.664062 C 37.957031 64.910156 37.9375 65.152344 37.921875 65.398438 C 37.914062 65.496094 37.910156 65.59375 37.90625 65.691406 C 37.894531 65.953125 37.886719 66.21875 37.890625 66.480469 C 37.890625 66.484375 37.890625 66.492188 37.890625 66.496094 C 37.90625 67.785156 37.925781 69.144531 37.945312 70.523438 C 37.605469 70.691406 37.269531 70.859375 36.9375 71.039062 C 35.78125 71.644531 34.652344 72.308594 33.5625 73.019531 C 32.113281 73.949219 30.777344 74.933594 29.578125 75.972656 C 29.570312 75.976562 29.5625 75.984375 29.554688 75.992188 C 29.203125 76.296875 28.859375 76.609375 28.53125 76.921875 C 28.515625 76.933594 28.5 76.945312 28.488281 76.960938 C 28.160156 77.273438 27.84375 77.589844 27.542969 77.910156 C 27.53125 77.921875 27.519531 77.933594 27.507812 77.945312 C 26.273438 79.253906 25.238281 80.632812 24.429688 82.0625 C 24.417969 82.078125 24.40625 82.097656 24.394531 82.117188 C 24.25 82.378906 24.109375 82.644531 23.976562 82.910156 C 23.84375 83.167969 23.71875 83.429688 23.597656 83.695312 C 25.554688 84.574219 29.570312 86.214844 33.507812 86.804688 L 33.507812 89.085938 C 33.507812 89.085938 36.890625 91.34375 46.972656 92.773438 L 48.945312 82.386719 C 48.945312 82.386719 59.1875 85.234375 70.195312 83.410156 L 68.914062 83.117188 C 68.914062 83.117188 81.769531 83.042969 92.789062 77.839844 C 103.808594 72.640625 105.671875 66.703125 106.722656 61.496094 Z M 106.726562 61.492188 " fill-opacity="0.1" fill-rule="nonzero"/><path fill="#f29d02" d="M 101.210938 69.21875 C 103.976562 66.179688 105.988281 62.257812 105.964844 58.074219 C 105.964844 58.074219 105.960938 55.667969 105.960938 55.667969 C 105.933594 53.714844 105.96875 51.40625 105.949219 49.476562 C 105.914062 48.042969 105.992188 46.636719 105.898438 45.257812 C 105.707031 42.8125 104.839844 40.464844 103.566406 38.375 C 93.269531 21.066406 52.605469 15.902344 29.457031 28.316406 C 22.558594 31.921875 15.378906 38.0625 15.300781 46.480469 C 15.324219 49.433594 15.300781 52.902344 15.320312 55.84375 C 15.339844 57.414062 15.25 58.816406 15.492188 60.332031 C 15.808594 62.40625 16.613281 64.382812 17.703125 66.175781 C 26.050781 80.808594 58.886719 87.421875 82.03125 80.132812 C 89.105469 78.007812 96.132812 74.734375 101.210938 69.21875 Z M 101.210938 69.21875 " fill-opacity="1" fill-rule="nonzero"/><path fill="#f28202" d="M 35.601562 78.9375 C 36.039062 79.09375 36.488281 79.246094 36.9375 79.394531 L 36.9375 25.097656 C 36.488281 25.25 36.042969 25.410156 35.601562 25.570312 Z M 35.601562 78.9375 " fill-opacity="1" fill-rule="nonzero"/><path fill="#f28202" d="M 53.566406 21.753906 C 53.121094 21.792969 52.675781 21.832031 52.230469 21.875 L 52.230469 82.628906 C 52.671875 82.679688 53.121094 82.722656 53.566406 82.765625 Z M 53.566406 21.753906 " fill-opacity="1" fill-rule="nonzero"/><path fill="#f28202" d="M 102.117188 68.152344 C 102.597656 67.550781 103.046875 66.921875 103.453125 66.269531 L 103.453125 38.199219 C 103.054688 37.539062 102.605469 36.898438 102.117188 36.277344 Z M 102.117188 68.152344 " fill-opacity="1" fill-rule="nonzero"/><path fill="#f28202" d="M 45.25 22.898438 C 44.804688 22.984375 44.359375 23.078125 43.914062 23.171875 L 43.914062 81.289062 C 44.359375 81.382812 44.804688 81.476562 45.25 81.566406 Z M 45.25 22.898438 " fill-opacity="1" fill-rule="nonzero"/><path fill="#f28202" d="M 70.195312 22.058594 C 69.75 22.003906 69.308594 21.957031 68.859375 21.910156 L 68.859375 82.742188 C 69.304688 82.699219 69.75 82.652344 70.195312 82.601562 Z M 70.195312 22.058594 " fill-opacity="1" fill-rule="nonzero"/><path fill="#f28202" d="M 85.488281 78.988281 C 85.9375 78.828125 86.382812 78.664062 86.824219 78.488281 L 86.824219 26.003906 C 86.382812 25.835938 85.941406 25.671875 85.488281 25.511719 Z M 85.488281 78.988281 " fill-opacity="1" fill-rule="nonzero"/><path fill="#f28202" d="M 27.285156 75.136719 C 27.722656 75.390625 28.167969 75.636719 28.621094 75.878906 L 28.621094 28.765625 C 28.175781 29.011719 27.730469 29.269531 27.285156 29.535156 Z M 27.285156 75.136719 " fill-opacity="1" fill-rule="nonzero"/><path fill="#f28202" d="M 18.972656 68.09375 C 19.382812 68.640625 19.828125 69.167969 20.308594 69.6875 L 20.308594 35.058594 C 19.835938 35.5625 19.390625 36.085938 18.972656 36.625 Z M 18.972656 68.09375 " fill-opacity="1" fill-rule="nonzero"/><path fill="#f28202" d="M 95.140625 30.121094 C 94.703125 29.839844 94.257812 29.570312 93.804688 29.300781 L 93.804688 75.132812 C 94.253906 74.863281 94.699219 74.582031 95.140625 74.296875 Z M 95.140625 30.121094 " fill-opacity="1" fill-rule="nonzero"/><path fill="#f28202" d="M 78.511719 23.5 C 78.066406 23.394531 77.621094 23.296875 77.175781 23.203125 L 77.175781 81.429688 C 77.621094 81.328125 78.066406 81.222656 78.511719 81.113281 Z M 78.511719 23.5 " fill-opacity="1" fill-rule="nonzero"/><path fill="#f28202" d="M 60.542969 83.109375 C 60.988281 83.113281 61.4375 83.113281 61.878906 83.109375 L 61.878906 21.492188 C 61.4375 21.484375 60.992188 21.480469 60.542969 21.480469 Z M 60.542969 83.109375 " fill-opacity="1" fill-rule="nonzero"/><path fill="#f29d02" d="M 95.109375 46.324219 C 95.105469 44.324219 94.523438 42.292969 93.300781 40.292969 C 87.230469 30.359375 67.679688 25.039062 49.632812 28.410156 C 35.214844 31.097656 26.121094 38.519531 26.136719 46.457031 L 26.140625 48.554688 C 26.125 40.617188 35.21875 33.195312 49.636719 30.503906 C 67.683594 27.136719 87.234375 32.457031 93.304688 42.390625 C 94.527344 44.386719 95.109375 46.421875 95.113281 48.421875 Z M 95.109375 46.324219 " fill-opacity="1" fill-rule="nonzero"/><path fill="#fcb609" d="M 57.734375 44.152344 C 56.277344 44.425781 54.136719 45.496094 54.511719 46.113281 C 54.679688 46.386719 56.058594 46.320312 56.644531 46.285156 C 57.6875 46.199219 58.972656 46.042969 60.339844 45.878906 C 61.3125 45.757812 62.320312 45.636719 63.359375 45.523438 C 66.285156 45.246094 74.011719 44.496094 76.53125 48.617188 C 77.953125 50.945312 77.363281 54.425781 71.207031 56.769531 L 71.605469 57.421875 C 72.054688 58.15625 71.53125 58.894531 70.410156 59.105469 L 65.867188 59.953125 C 64.746094 60.160156 63.515625 59.75 63.066406 59.015625 L 62.808594 58.597656 C 58.359375 58.996094 54.546875 58.3125 51.179688 56.515625 C 50.96875 56.417969 50.574219 56.140625 50.75 55.65625 C 51.117188 54.644531 54.429688 52.722656 56.464844 52.34375 C 57.640625 52.125 58.28125 52.398438 58.566406 52.578125 L 58.59375 52.597656 L 58.621094 52.621094 C 59.351562 53.183594 61.945312 53.132812 63.476562 52.847656 C 64.917969 52.578125 67.121094 51.484375 66.753906 50.878906 C 66.726562 50.832031 66.664062 50.730469 65.921875 50.699219 C 64.796875 50.652344 62.964844 50.871094 61.023438 51.101562 C 60.480469 51.167969 59.917969 51.238281 59.339844 51.300781 C 55.460938 51.753906 47.375 52.691406 44.734375 48.375 C 43.167969 45.8125 44.007812 42.078125 51.308594 39.78125 L 51.027344 39.316406 C 50.59375 38.609375 51.140625 37.867188 52.246094 37.664062 L 56.785156 36.816406 C 57.890625 36.609375 59.132812 37.015625 59.566406 37.722656 L 59.921875 38.304688 C 63.757812 38.15625 67.070312 38.871094 70.019531 40.476562 C 70.542969 40.734375 70.746094 41.109375 70.59375 41.539062 C 70.199219 42.65625 67.050781 44.265625 64.988281 44.648438 C 63.625 44.902344 62.941406 44.59375 62.660156 44.390625 C 61.859375 43.796875 59.242188 43.871094 57.738281 44.152344 M 71.636719 66.496094 C 89.707031 63.121094 99.429688 52.324219 93.351562 42.378906 C 87.273438 32.4375 67.695312 27.109375 49.625 30.480469 C 31.550781 33.855469 21.828125 44.652344 27.90625 54.597656 C 33.984375 64.539062 53.566406 69.867188 71.636719 66.496094 " fill-opacity="1" fill-rule="nonzero"/><path fill="#f89700" d="M 57.394531 43.597656 C 55.699219 43.914062 52.832031 45.21875 53.496094 46.304688 C 53.847656 46.878906 55.074219 46.984375 56.773438 46.867188 C 58.632812 46.722656 61.042969 46.375 63.558594 46.105469 C 68.394531 45.640625 73.585938 45.644531 75.515625 48.804688 C 76.804688 50.914062 76.386719 54.3125 69.929688 56.527344 L 70.59375 57.609375 C 70.851562 58.03125 70.613281 58.445312 70.066406 58.546875 L 65.527344 59.394531 C 64.980469 59.496094 64.339844 59.246094 64.082031 58.824219 L 63.527344 57.921875 C 58.414062 58.539062 54.816406 57.636719 51.921875 56.09375 C 50.96875 55.632812 54.828125 53.269531 56.800781 52.902344 C 57.238281 52.820312 57.546875 52.828125 57.75 52.960938 C 58.90625 53.851562 62.121094 53.71875 63.816406 53.402344 C 65.402344 53.105469 68.445312 51.800781 67.765625 50.6875 C 67.523438 50.292969 66.886719 50.144531 66.007812 50.109375 C 64.382812 50.042969 61.867188 50.410156 59.128906 50.71875 C 53.890625 51.332031 47.867188 51.648438 45.75 48.183594 C 44.367188 45.925781 44.859375 42.242188 52.613281 40.058594 L 52.042969 39.125 C 51.804688 38.734375 52.039062 38.320312 52.585938 38.21875 L 57.125 37.371094 C 57.671875 37.269531 58.3125 37.519531 58.554688 37.910156 L 59.179688 38.933594 C 63.503906 38.628906 66.726562 39.503906 69.289062 40.90625 C 70.660156 41.554688 66.777344 43.6875 64.644531 44.085938 C 64.152344 44.179688 63.734375 44.191406 63.511719 44.027344 C 62.285156 43.117188 59.035156 43.289062 57.394531 43.59375 M 65.867188 59.949219 L 70.410156 59.101562 C 71.53125 58.890625 72.054688 58.15625 71.605469 57.417969 L 71.207031 56.765625 C 77.363281 54.425781 77.957031 50.945312 76.53125 48.613281 C 74.011719 44.496094 66.285156 45.242188 63.359375 45.523438 C 62.320312 45.636719 61.3125 45.757812 60.339844 45.878906 C 58.972656 46.042969 57.683594 46.199219 56.644531 46.28125 C 56.058594 46.320312 54.679688 46.382812 54.511719 46.109375 C 54.136719 45.492188 56.277344 44.421875 57.734375 44.152344 C 59.238281 43.871094 61.859375 43.792969 62.660156 44.386719 C 62.941406 44.59375 63.621094 44.902344 64.984375 44.644531 C 67.046875 44.261719 70.199219 42.652344 70.59375 41.535156 C 70.742188 41.109375 70.539062 40.734375 70.015625 40.476562 C 67.070312 38.871094 63.757812 38.15625 59.917969 38.300781 L 59.5625 37.722656 C 59.132812 37.015625 57.886719 36.605469 56.785156 36.8125 L 52.242188 37.660156 C 51.140625 37.867188 50.59375 38.609375 51.023438 39.316406 L 51.304688 39.777344 C 44.003906 42.078125 43.167969 45.808594 44.734375 48.375 C 47.371094 52.691406 55.460938 51.75 59.339844 51.296875 C 59.914062 51.234375 60.476562 51.164062 61.019531 51.101562 C 62.960938 50.871094 64.792969 50.652344 65.917969 50.695312 C 66.660156 50.726562 66.722656 50.832031 66.75 50.875 C 67.121094 51.480469 64.914062 52.578125 63.472656 52.847656 C 61.941406 53.132812 59.351562 53.183594 58.621094 52.617188 L 58.589844 52.59375 L 58.566406 52.578125 C 58.28125 52.394531 57.636719 52.125 56.460938 52.34375 C 54.425781 52.722656 51.113281 54.640625 50.746094 55.652344 C 50.570312 56.140625 50.964844 56.417969 51.179688 56.515625 C 54.546875 58.308594 58.359375 58.992188 62.808594 58.59375 L 63.0625 59.011719 C 63.511719 59.746094 64.742188 60.15625 65.867188 59.949219 " fill-opacity="1" fill-rule="nonzero"/><path fill="#f9d720" d="M 65.527344 59.394531 L 70.066406 58.546875 C 70.613281 58.445312 70.847656 58.03125 70.59375 57.609375 L 69.929688 56.527344 C 76.386719 54.316406 76.804688 50.914062 75.515625 48.804688 C 73.585938 45.644531 68.394531 45.640625 63.558594 46.105469 C 61.042969 46.375 58.632812 46.722656 56.773438 46.871094 C 55.074219 46.984375 53.847656 46.878906 53.496094 46.304688 C 52.832031 45.222656 55.699219 43.914062 57.394531 43.597656 C 59.035156 43.292969 62.285156 43.121094 63.511719 44.03125 C 63.730469 44.191406 64.152344 44.179688 64.644531 44.089844 C 66.777344 43.691406 70.660156 41.558594 69.289062 40.910156 C 66.726562 39.507812 63.503906 38.632812 59.179688 38.9375 L 58.550781 37.914062 C 58.3125 37.519531 57.671875 37.273438 57.125 37.375 L 52.585938 38.222656 C 52.039062 38.324219 51.800781 38.738281 52.042969 39.128906 L 52.613281 40.0625 C 44.859375 42.246094 44.367188 45.929688 45.746094 48.1875 C 47.867188 51.652344 53.886719 51.332031 59.128906 50.722656 C 61.867188 50.414062 64.382812 50.046875 66.007812 50.109375 C 66.886719 50.148438 67.523438 50.296875 67.761719 50.6875 C 68.445312 51.804688 65.402344 53.109375 63.816406 53.40625 C 62.117188 53.722656 58.90625 53.851562 57.746094 52.960938 C 57.546875 52.832031 57.234375 52.824219 56.796875 52.90625 C 54.828125 53.273438 50.96875 55.636719 51.921875 56.097656 C 54.816406 57.640625 58.414062 58.542969 63.527344 57.925781 L 64.082031 58.828125 C 64.339844 59.25 64.976562 59.5 65.523438 59.398438 " fill-opacity="1" fill-rule="nonzero"/><path fill="#fbdf23" d="M 46.175781 22.761719 C 69.894531 18.332031 95.589844 25.324219 103.566406 38.375 C 111.542969 51.425781 98.785156 65.597656 75.066406 70.023438 C 51.351562 74.453125 25.65625 67.460938 17.679688 54.410156 C 9.703125 41.355469 22.460938 27.1875 46.175781 22.761719 Z M 49.632812 28.410156 C 31.582031 31.777344 21.875 42.558594 27.945312 52.492188 C 34.015625 62.421875 53.566406 67.746094 71.613281 64.375 C 89.664062 61.007812 99.371094 50.226562 93.300781 40.292969 C 87.230469 30.363281 67.679688 25.042969 49.632812 28.410156 " fill-opacity="1" fill-rule="nonzero"/><path fill="#fbe764" d="M 103.566406 38.375 C 100.96875 34.121094 96.484375 30.511719 90.804688 27.734375 L 85.625 33.28125 C 88.980469 35.222656 91.644531 37.582031 93.300781 40.292969 C 99.371094 50.222656 89.664062 61.007812 71.613281 64.375 C 66.359375 65.355469 60.976562 65.59375 55.832031 65.203125 L 50.65625 70.753906 C 58.492188 71.71875 66.898438 71.550781 75.070312 70.023438 C 76.144531 69.824219 77.195312 69.601562 78.226562 69.363281 L 104.832031 40.855469 C 104.488281 40.027344 104.070312 39.199219 103.566406 38.378906 Z M 103.566406 38.375 " fill-opacity="1" fill-rule="nonzero"/><path fill="#fbe764" d="M 27.945312 52.492188 C 21.875 42.5625 31.582031 31.777344 49.632812 28.410156 C 50.09375 28.324219 50.554688 28.246094 51.019531 28.171875 L 57.238281 21.507812 C 53.554688 21.664062 49.84375 22.078125 46.179688 22.761719 C 44.785156 23.019531 43.429688 23.316406 42.113281 23.640625 L 16.207031 51.394531 C 16.582031 52.402344 17.066406 53.410156 17.679688 54.410156 C 18.765625 56.1875 20.183594 57.851562 21.878906 59.394531 L 28.101562 52.730469 C 28.050781 52.648438 27.992188 52.574219 27.941406 52.492188 Z M 27.945312 52.492188 " fill-opacity="1" fill-rule="nonzero"/><path fill="#fbe764" d="M 15.359375 45.222656 L 32.496094 26.859375 C 22.265625 31.335938 16.003906 38.0625 15.359375 45.222656 Z M 15.359375 45.222656 " fill-opacity="1" fill-rule="nonzero"/></svg>